<svg xmlns="http://www.w3.org/2000/svg" width="280" height="280" viewBox="0 0 280 280">
  <g fill="none" transform="translate(12 25)">
    <polygon fill="#27AAE1" points="239.49 122.96 254.9 101.18 194.87 52.48 194.87 1.83 163.64 1.83 163.64 28.17 127.45 0 0 101.18 15.4 122.96 42.28 104.97 42.28 200.87 23.75 200.87 23.75 225.15 231.15 225.15 231.15 200.87 212.62 200.87 212.62 104.97"/>
    <polygon fill="#231F20" points="239.49 122.96 254.9 101.18 194.87 52.48 194.87 1.83 163.64 1.83 163.64 28.17 127.45 0 127.45 225.15 231.15 225.15 231.15 200.87 212.62 200.87 212.62 104.97" opacity=".1"/>
    <path fill="#FFF" d="M159.12,132.07 L152.29,144.01 L148.21,127.43 L146.53,132.07 L139.75,132.07 L132.94,161.99 L126.82,120.68 L124.35,132.07 L115.82,132.07 L108.06,146.01 L104.16,126.01 L101.93,132.01 L75.62,132.01 C76.8374361,133.849942 78.2379005,135.561993 79.8,137.12 L127.5,184.82 L173.58,138.74 L175.2,137.12 C176.762049,135.561947 178.162509,133.849902 179.38,132.01 L159.12,132.01 L159.12,132.07 Z"/>
    <path fill="#FFF" d="M98.9,127.72 L105.45,109.99 L110.04,133.49 L113.25,127.72 L120.83,127.72 L127.62,96.42 L133.84,138.42 L136.27,127.73 L143.47,127.73 L149,112.47 L153.91,132.41 L156.59,127.72 L181.7,127.72 C188.29966,113.386612 183.671561,96.3839834 170.717605,87.3730708 C157.76365,78.3621583 140.212902,79.9369403 129.07,91.11 L127.45,92.73 L125.83,91.11 C114.687098,79.9369403 97.1363505,78.3621583 84.1823945,87.3730708 C71.2284386,96.3839834 66.6003397,113.386612 73.2,127.72 L98.9,127.72 L98.9,127.72 Z"/>
  </g>
</svg>
